{"title":"Only Connect S13E01 Stewards v Parishioners. revittony","magnet":"magnet:?xt=urn:btih:2b9a892606fe5fb3b3114d0bb8d3f3f3a4ea3274&dn=Only+Connect+S13E01+Stewards+v+Parishioners.+revittony&tr=udp%3A%2F%2Ftracker.leechers-paradise.org%3A6969&tr=udp%3A%2F%2Fzer0day.ch%3A1337&tr=udp%3A%2F%2Fopen.demonii.com%3A1337&tr=udp%3A%2F%2Ftracker.coppersurfer.tk%3A6969&tr=udp%3A%2F%2Fexodus.desync.com%3A6969","uploader":"revittony1","categoryP":"video","categoryS":"tv_shows","size":"523046043","seeders":"1","leechers":"0","description":" \r\nFormat : MPEG-4 \r\nFormat profile : Base Media \r\nCodec ID : isom (isom/iso2/avc1/mp41) \r\nOverall bit rate mode : Variable \r\nOverall bit rate : 2 405 kb/s \r\n\r\nVideo \r\nID : 1 \r\nFormat : AVC \r\nFormat/Info : Advanced Video Codec \r\nFormat profile : <a class=\"__cf_email__\" href=\"/cdn-cgi/l/email-protection\" data-cfemail=\"d098b9b7b8909ce4fee1\">[email&#xA0;protected]</a><script data-cfhash=\"f9e31\" type=\"text/javascript\">/* <![CDATA[ */!function(t,e,r,n,c,a,p){try{t=document.currentScript||function(){for(t=document.getElementsByTagName('script'),e=t.length;e--;)if(t[e].getAttribute('data-cfhash'))return t[e]}();if(t&&(c=t.previousSibling)){p=t.parentNode;if(a=c.getAttribute('data-cfemail')){for(e='',r='0x'+a.substr(0,2)|0,n=2;a.length-n;n+=2)e+='%'+('0'+('0x'+a.substr(n,2)^r).toString(16)).slice(-2);p.replaceChild(document.createTextNode(decodeURIComponent(e)),c)}p.removeChild(t)}}catch(u){}}()/* ]]> */</script> \r\nFormat settings, CABAC : Yes \r\nFormat settings, RefFrames : 2 frames \r\nCodec ID : avc1 \r\nCodec ID/Info : Advanced Video Coding \r\nBit rate mode : Variable \r\nBit rate : 2 306 kb/s \r\nMaximum bit rate : 3 500 kb/s \r\nWidth : 1 280 pixels \r\nHeight : 720 pixels \r\nDisplay aspect ratio : 16:9 \r\nFrame rate mode : Constant \r\nFrame rate : 25.000 FPS \r\nColor space : YUV \r\nChroma subsampling : 4:2:0 \r\nBit depth : 8 bits \r\nScan type : Progressive \r\nBits/(Pixel*Frame) : 0.100 \r\nStream size : 478 MiB (96%) \r\n\r\nAudio \r\nID : 2 \r\nFormat : AAC \r\nFormat/Info : Advanced Audio Codec \r\nFormat profile : LC \r\nCodec ID : 40 \r\nBit rate mode : Constant \r\nBit rate : 93.5 kb/s \r\nChannel(s) : 2 channels \r\nChannel positions : Front: L R \r\nSampling rate : 48.0 kHz \r\nFrame rate : 46.875 FPS (1024 SPF) \r\nCompression mode : Lossy \r\nStream size : 19.4 MiB (4%) \r\nDefault : Yes \r\nAlternate group : 1","last_updated":"2017-08-13T12:01:27.066Z","parsed":{"xt":"urn:btih:2b9a892606fe5fb3b3114d0bb8d3f3f3a4ea3274","dn":"Only Connect S13E01 Stewards v Parishioners. revittony","tr":["udp://exodus.desync.com:6969","udp://open.demonii.com:1337","udp://tracker.coppersurfer.tk:6969","udp://tracker.leechers-paradise.org:6969","udp://zer0day.ch:1337"],"infoHash":"2b9a892606fe5fb3b3114d0bb8d3f3f3a4ea3274","infoHashBuffer":{"type":"Buffer","data":[43,154,137,38,6,254,95,179,179,17,77,11,184,211,243,243,164,234,50,116]},"name":"Only Connect S13E01 Stewards v Parishioners. revittony","announce":["udp://exodus.desync.com:6969","udp://open.demonii.com:1337","udp://tracker.coppersurfer.tk:6969","udp://tracker.leechers-paradise.org:6969","udp://zer0day.ch:1337"],"urlList":[]}}